DataRate=1000.000000
DataType=double
version=3
OpenSimVersion=4.3-2021-08-27-4bc7ad9
endheader
time	f1_1	f1_2	f1_3	p1_1	p1_2	p1_3	m1_1	m1_2	m1_3	f2_1	f2_2	f2_3	p2_1	p2_2	p2_3	m2_1	m2_2	m2_3	f3_1	f3_2	f3_3	p3_1	p3_2	p3_3	m3_1	m3_2	m3_3
1.51	-8.57691886970599	49.34181147171853	411.3021405863128	14.45976257324219	-321.9847340583801	-1.820896983146667	84300.1663462803	-15607.97908361526	4324.989401623133	-26.19980182571046	-60.30181677211485	382.2259340126753	-187.90687251091	287.4620535373688	-5.94753485918045	16169.90226984656	16330.12532516628	4884.806812766192	-1.149324128188735	-4.519782558830017	-4.080794798042845	213.2717213630676	287.216891169548	0.05869996547698975	-965.1121102901233	-626.7353241107394	-552.3380568024456
1.511	-8.510202529796025	49.34732843538669	410.8629246099792	14.45976257324219	-321.9847340583801	-1.820896983146667	83983.14356048151	-15519.98678071827	4321.622899715111	-18.8157625919395	-62.98371359647648	386.8043485750321	-187.90687251091	287.4620535373688	-5.94753485918045	15867.82956507268	15016.36137219802	4560.815862264254	0.755605770058654	-5.2641567895321	-3.742841778906821	213.2717213630676	287.216891169548	0.05869996547698975	-1153.682337804775	-857.2160808466377	-488.1190682007471
1.512	-8.844370734929342	49.32844631805372	408.3935152282139	14.45976257324219	-321.9847340583801	-1.820896983146667	83527.52800882516	-15619.15593742456	4200.099854397122	-10.80111910970951	-65.03588252544138	392.969606385604	-187.90687251091	287.4620535373688	-5.94753485918045	15694.82655722421	13802.74302335414	4270.758624947075	1.654697021831331	-5.676913758758672	-2.635170175591592	213.2717213630676	287.216891169548	0.05869996547698975	-982.3405951854155	-895.5322487893759	-555.5926615799636
1.513	-8.578945256614707	48.95903266714689	406.2818005043849	14.45976257324219	-321.9847340583801	-1.820896983146667	83144.8420966596	-15216.39447397924	4124.549658715042	-4.055748115721856	-67.64145571173226	394.6101379519006	-187.90687251091	287.4620535373688	-5.94753485918045	15508.35576904261	12628.07641096927	4081.017251613787	1.90072115659428	-5.800841297536905	-2.397102476174089	213.2717213630676	287.216891169548	0.05869996547698975	-1035.305271386424	-877.7805032425226	-494.9391229467823
1.514	-7.125060501829125	48.87838810467619	405.6502621982083	14.45976257324219	-321.9847340583801	-1.820896983146667	83052.47100494354	-15185.13883543215	3792.95637594381	1.09453861049376	-69.35017941980784	399.1184882452894	-187.90687251091	287.4620535373688	-5.94753485918045	15084.09919672231	11615.53334687605	3926.816472835732	1.111154391004091	-5.262647731424341	-2.329335893399205	213.2717213630676	287.216891169548	0.05869996547698975	-965.5295196060275	-609.8436165602853	-520.80573435475
1.515	-4.904071222768478	48.8123590727827	403.5171740564435	14.45976257324219	-321.9847340583801	-1.820896983146667	82574.61043049961	-15091.72529722564	3306.543709508854	3.897917282591863	-71.14521764019314	403.71621780371	-187.90687251091	287.4620535373688	-5.94753485918045	15083.51183390861	10855.16000273365	3673.986123057512	-0.8969699996925535	-5.389804382297617	-4.311616755308264	213.2717213630676	287.216891169548	0.05869996547698975	-924.421849711364	-439.8562305461634	-477.3440657629706
1.516	-3.999147692163632	48.94691097006882	402.0082620730501	14.45976257324219	-321.9847340583801	-1.820896983146667	81820.45909629762	-14731.8481340995	3016.425931177672	5.711036569164141	-72.82588710409959	405.536517647874	-187.90687251091	287.4620535373688	-5.94753485918045	15136.08532244419	10443.4291320505	3489.946790752898	-3.200139761413007	-4.232634507257551	-5.98572596760227	213.2717213630676	287.216891169548	0.05869996547698975	-859.8360237584708	-295.2903802163132	-499.8333897585945
1.517	-3.415580987255955	49.25578857915549	399.0170317259283	14.45976257324219	-321.9847340583801	-1.820896983146667	81536.48136618892	-14162.25025717808	2946.379077350814	8.194938105498547	-74.19050024277908	408.9434712911128	-187.90687251091	287.4620535373688	-5.94753485918045	15143.10795556356	9785.814459208274	3367.114673821437	-3.543032448038422	-4.107726502622189	-5.129133510081031	213.2717213630676	287.216891169548	0.05869996547698975	-963.8480462292978	-178.1139841378784	-532.7741429228885
1.518	-0.4327367013748429	49.79885858542896	398.1276127888761	14.45976257324219	-321.9847340583801	-1.820896983146667	81498.57173287924	-14201.72076091237	2678.452039564769	11.39207077718362	-75.63118789287356	414.4137530208512	-187.90687251091	287.4620535373688	-5.94753485918045	15144.76960774495	9109.227011034747	2962.356023434483	-2.923602069431332	-4.231460697309879	-4.886332688560183	213.2717213630676	287.216891169548	0.05869996547698975	-985.0607793127165	-251.2003584378658	-503.1866831646137
1.519	5.854651462113386	52.2049683328751	398.9467689986539	14.45976257324219	-321.9847340583801	-1.820896983146667	81651.75947973825	-14986.47022511663	1561.056366819682	16.40559531729976	-75.45748437766683	415.8231521135643	-187.90687251091	287.4620535373688	-5.94753485918045	15410.29233958426	8133.944382694216	2835.198237906167	-1.740797700055832	-5.099233684667365	-3.226695523679738	213.2717213630676	287.216891169548	0.05869996547698975	-1098.478898351682	-405.2124878242672	-607.3182752197415
1.52	10.08606536941346	54.04644870808583	397.3157391314317	14.45976257324219	-321.9847340583801	-1.820896983146667	80600.7159087545	-14667.34678893308	641.0578364642624	22.73105663069098	-75.98547326953852	421.5981132056964	-187.90687251091	287.4620535373688	-5.94753485918045	15493.84056108165	7078.794927492865	2456.451144811252	-0.05036519618648726	-5.636077306758602	-2.343710569554827	213.2717213630676	287.216891169548	0.05869996547698975	-980.6007410526221	-730.1610542121689	-562.3401096278233
1.521	8.479515619767534	53.90037845036795	394.3985541517517	14.45976257324219	-321.9847340583801	-1.820896983146667	79920.72865086801	-13703.78357044828	394.294636938252	28.80750308057125	-75.25905003197323	424.9898887715586	-187.90687251091	287.4620535373688	-5.94753485918045	15709.66080786786	5960.468694979326	2243.064458131748	1.612404075924362	-6.049689700938178	-2.557080345659264	213.2717213630676	287.216891169548	0.05869996547698975	-1044.460516397507	-715.406474055975	-602.9348946678768
1.522	1.904146912054336	52.85932686601749	389.8198739076032	14.45976257324219	-321.9847340583801	-1.820896983146667	79685.76615570745	-13246.60397666028	1929.303737910727	33.30907485390522	-74.6947920252137	425.9246020493543	-187.90687251091	287.4620535373688	-5.94753485918045	16281.34767178969	5166.271435632241	1990.878408078934	2.271067251921183	-5.634727552675074	-2.157729752017978	213.2717213630676	287.216891169548	0.05869996547698975	-1198.810672040266	-827.9309597810278	-634.6961541181064
1.523	-3.679332350008937	51.82014606254552	388.419586992461	14.45976257324219	-321.9847340583801	-1.820896983146667	79140.99369400446	-13505.80813783487	3670.111230837564	36.37876771913666	-73.2331417286151	431.3159053551803	-187.90687251091	287.4620535373688	-5.94753485918045	16424.58352912642	4563.254147792785	1815.751971426624	1.743649696787523	-5.718734773384367	-3.103670257401232	213.2717213630676	287.216891169548	0.05869996547698975	-1139.155254089321	-655.0090422745457	-682.2533589970535
1.524	-6.393297605312052	50.51245295226506	383.5784696710306	14.45976257324219	-321.9847340583801	-1.820896983146667	78404.8501513314	-14668.1238582283	5103.543990358981	37.02076557302096	-71.70117453793311	436.3200895192865	-187.90687251091	287.4620535373688	-5.94753485918045	16715.11028140091	4044.038780797313	1706.387281232067	-0.2293151049361215	-5.09977576926318	-4.616535560065773	213.2717213630676	287.216891169548	0.05869996547698975	-973.6282335870852	-580.5616394680667	-569.0876551385031
1.525	-7.768318497281253	49.16442567345482	379.1900251532228	14.45976257324219	-321.9847340583801	-1.820896983146667	76606.72569508631	-15123.31053303618	5210.253859195594	36.86729164483376	-70.60335784961818	437.9102317015666	-187.90687251091	287.4620535373688	-5.94753485918045	17314.09014205923	4035.422925164891	1518.750724436462	-2.049365533616476	-4.189803241366186	-5.110123112729967	213.2717213630676	287.216891169548	0.05869996547698975	-873.8803734919649	-409.8272948521802	-484.99014563099
1.526	-9.952384115399239	49.1568183447861	373.259334112807	14.45976257324219	-321.9847340583801	-1.820896983146667	75468.20940396101	-15398.83353887879	4615.842938337862	36.20725761309676	-69.62491443801085	439.8998878025769	-187.90687251091	287.4620535373688	-5.94753485918045	17573.17253985311	3910.083662224097	1298.250928503774	-4.175611758910803	-3.48593847200692	-4.354954966272538	213.2717213630676	287.216891169548	0.05869996547698975	-908.2773195279735	-133.0253287794658	-389.4214782122924
1.527	-13.58398638362728	50.36571097072878	367.1864981416545	14.45976257324219	-321.9847340583801	-1.820896983146667	74785.22539746095	-15261.68609255285	4681.795303692923	36.94770385788431	-67.34730069071648	441.009385428922	-187.90687251091	287.4620535373688	-5.94753485918045	18489.94661136599	3892.08725191248	1085.55702377755	-3.709305323367539	-3.486432833676107	-5.131821440450867	213.2717213630676	287.216891169548	0.05869996547698975	-843.722309457189	-189.8739230951048	-539.5802543886535
1.528	-17.74229643717608	50.22625617353623	363.6098318013426	14.45976257324219	-321.9847340583801	-1.820896983146667	74266.27501385214	-14529.07199006708	5270.786495320703	38.29546794522694	-65.26379648852679	446.8053259303493	-187.90687251091	287.4620535373688	-5.94753485918045	19064.13187744129	3469.309526758349	977.8115335287059	-2.669599275360309	-4.438823744970994	-5.274308201638013	213.2717213630676	287.216891169548	0.05869996547698975	-882.1431224878323	-346.2845671443982	-659.3574637181761
1.529	-20.40118431049967	48.44361004969745	357.8913423609516	14.45976257324219	-321.9847340583801	-1.820896983146667	73019.76558734592	-13957.12770386998	6651.764954826819	40.92939598003602	-62.19532397380431	452.1984738058178	-187.90687251091	287.4620535373688	-5.94753485918045	19707.04637524921	3062.872520576102	854.0639217641353	-0.9421763063700385	-5.886637475684869	-3.998614640020354	213.2717213630676	287.216891169548	0.05869996547698975	-1068.559398087521	-457.1183921342198	-633.391420300136
1.53	-21.02912276474671	44.81931960308844	353.9282176467333	14.45976257324219	-321.9847340583801	-1.820896983146667	71913.86116968791	-13761.87964567256	7839.594445050522	44.03378395884171	-60.81200528804486	456.4770015521642	-187.90687251091	287.4620535373688	-5.94753485918045	20004.67001461155	2496.409018755122	629.745801581503	0.3363785802928032	-6.506765845000693	-3.35560622178859	213.2717213630676	287.216891169548	0.05869996547698975	-1251.830289872665	-680.2472078782311	-575.7271938419468
